<svg xmlns="http://www.w3.org/2000/svg" viewBox="0 0 560 150" width="560" height="150">
  <!-- Horizontal lockup: logo tile + "Coldcast" wordmark. White text — for dark backgrounds. -->
  <defs>
    <linearGradient id="cc-wmw-tile" x1="0" y1="0" x2="1" y2="1">
      <stop offset="0" stop-color="#4f7cf5" />
      <stop offset="1" stop-color="#3257d6" />
    </linearGradient>
  </defs>
  <g transform="translate(16 27) scale(0.75)">
    <rect x="6" y="6" width="116" height="116" rx="30" fill="url(#cc-wmw-tile)" />
    <g stroke="#ffffff" stroke-width="11" stroke-linecap="round" fill="none">
      <g transform="rotate(0 64 64)"><path d="M64 56 C 71 46 86 48 92 60" /><circle cx="92" cy="60" r="6" fill="#ffffff" stroke="none" /></g>
      <g transform="rotate(60 64 64)"><path d="M64 56 C 71 46 86 48 92 60" /><circle cx="92" cy="60" r="6" fill="#ffffff" stroke="none" /></g>
      <g transform="rotate(120 64 64)"><path d="M64 56 C 71 46 86 48 92 60" /><circle cx="92" cy="60" r="6" fill="#ffffff" stroke="none" /></g>
      <g transform="rotate(180 64 64)"><path d="M64 56 C 71 46 86 48 92 60" /><circle cx="92" cy="60" r="6" fill="#ffffff" stroke="none" /></g>
      <g transform="rotate(240 64 64)"><path d="M64 56 C 71 46 86 48 92 60" /><circle cx="92" cy="60" r="6" fill="#ffffff" stroke="none" /></g>
      <g transform="rotate(300 64 64)"><path d="M64 56 C 71 46 86 48 92 60" /><circle cx="92" cy="60" r="6" fill="#ffffff" stroke="none" /></g>
    </g>
  </g>
  <text x="132" y="99" font-family="'Space Grotesk', 'Segoe UI', Arial, sans-serif" font-size="66" font-weight="700" letter-spacing="-1.5" fill="#ffffff">Coldcast</text>
</svg>
