<svg xmlns="http://www.w3.org/2000/svg" viewBox="0 0 128 128" width="128" height="128">
  <defs>
    <linearGradient id="coldcast-tile-sq" x1="0" y1="0" x2="1" y2="1">
      <stop offset="0" stop-color="#4f7cf5" />
      <stop offset="1" stop-color="#3257d6" />
    </linearGradient>
  </defs>
  <rect x="0" y="0" width="128" height="128" fill="url(#coldcast-tile-sq)" />
  <g stroke="white" stroke-width="11" stroke-linecap="round" fill="none">
    <g transform="rotate(0 64 64)"><path d="M64 56 C 71 46 86 48 92 60" /><circle cx="92" cy="60" r="6" fill="white" stroke="none" /></g>
    <g transform="rotate(60 64 64)"><path d="M64 56 C 71 46 86 48 92 60" /><circle cx="92" cy="60" r="6" fill="white" stroke="none" /></g>
    <g transform="rotate(120 64 64)"><path d="M64 56 C 71 46 86 48 92 60" /><circle cx="92" cy="60" r="6" fill="white" stroke="none" /></g>
    <g transform="rotate(180 64 64)"><path d="M64 56 C 71 46 86 48 92 60" /><circle cx="92" cy="60" r="6" fill="white" stroke="none" /></g>
    <g transform="rotate(240 64 64)"><path d="M64 56 C 71 46 86 48 92 60" /><circle cx="92" cy="60" r="6" fill="white" stroke="none" /></g>
    <g transform="rotate(300 64 64)"><path d="M64 56 C 71 46 86 48 92 60" /><circle cx="92" cy="60" r="6" fill="white" stroke="none" /></g>
  </g>
</svg>
