<svg xmlns="http://www.w3.org/2000/svg" width="128" height="128" viewBox="0 0 32 32">
  <!-- Coldcast mark — identical to src/components/Logo.jsx, the source of truth.
       Lime #ccff00 tile, six arms from the centre hub, #0a0a0a at 2.4. -->
  <rect width="32" height="32" rx="8" fill="#ccff00"/>
  <g stroke="#0a0a0a" stroke-width="2.4" stroke-linecap="round" fill="none">
    <path d="M16 16 C16 10.5 19 8 23.5 8"/>
    <path d="M16 16 C16 10.5 19 8 23.5 8" transform="rotate(60 16 16)"/>
    <path d="M16 16 C16 10.5 19 8 23.5 8" transform="rotate(120 16 16)"/>
    <path d="M16 16 C16 10.5 19 8 23.5 8" transform="rotate(180 16 16)"/>
    <path d="M16 16 C16 10.5 19 8 23.5 8" transform="rotate(240 16 16)"/>
    <path d="M16 16 C16 10.5 19 8 23.5 8" transform="rotate(300 16 16)"/>
  </g>
</svg>
